<svg width="1200" height="630" viewBox="0 0 1200 630" fill="none" xmlns="http://www.w3.org/2000/svg">
  <!-- Background gradient -->
  <defs>
    <linearGradient id="bg" x1="0%" y1="0%" x2="100%" y2="100%">
      <stop offset="0%" style="stop-color:#FAF8F5"/>
      <stop offset="50%" style="stop-color:#F5F2ED"/>
      <stop offset="100%" style="stop-color:#EDE8E0"/>
    </linearGradient>
    <linearGradient id="accent" x1="0%" y1="0%" x2="100%" y2="0%">
      <stop offset="0%" style="stop-color:#C4A484"/>
      <stop offset="100%" style="stop-color:#C4A484;stop-opacity:0.5"/>
    </linearGradient>
  </defs>

  <rect width="1200" height="630" fill="url(#bg)"/>

  <!-- Decorative circles -->
  <circle cx="150" cy="100" r="120" fill="#7D8B7A" fill-opacity="0.08"/>
  <circle cx="1050" cy="480" r="90" fill="#C4A484" fill-opacity="0.08"/>

  <!-- Logo mark -->
  <circle cx="600" cy="180" r="45" fill="#7D8B7A"/>
  <g transform="translate(600,180) scale(0.145) translate(-256,-262)">
    <g fill="none" stroke="#FAF8F5" stroke-width="34" stroke-linecap="round" stroke-linejoin="round">
      <path d="M256 168 L256 412"/><path d="M162 216 L350 216"/>
      <path d="M124 332 C124 392 180 414 256 414 C332 414 388 392 388 332"/>
    </g><circle cx="256" cy="128" r="42" fill="#FAF8F5"/>
  </g>

  <!-- Title -->
  <text x="600" y="300" text-anchor="middle" fill="#3D3632" font-family="Georgia, serif" font-size="64" font-weight="600">ANCHOR</text>

  <!-- Subtitle -->
  <text x="600" y="360" text-anchor="middle" fill="#6B6560" font-family="system-ui, sans-serif" font-size="24">Something to hold onto when you're drifting.</text>

  <!-- Accent line -->
  <rect x="570" y="400" width="60" height="4" rx="2" fill="url(#accent)"/>

  <!-- Tagline -->
  <text x="600" y="470" text-anchor="middle" fill="#8B8580" font-family="Georgia, serif" font-size="18" font-style="italic">No accounts. No tracking. No pressure.</text>
</svg>
